<svg id="Layer_1" data-name="Layer 1" xmlns="http://www.w3.org/2000/svg" viewBox="0 0 429.6 63.68"><defs><style>.cls-1,.cls-2{fill:#e64401;}.cls-2{opacity:0.98;isolation:isolate;}</style></defs><path class="cls-1" d="M602,563.84c-23.29,0-36-7.21-36-30.44V500.18h11.28V533.4c0,9.33,2.57,20,24.75,20s24.75-10.76,24.75-20V500.18H638V533.4C638,556.54,625.21,563.84,602,563.84Z" transform="translate(-565.97 -500.16)"/><path class="cls-2" d="M622.94,523.08H581.06a1.51,1.51,0,0,1-1.47-1.55l4-19.82a1.41,1.41,0,0,1,1.21-1.55h34.34a1.41,1.41,0,0,1,1.21,1.55l4,19.82A1.53,1.53,0,0,1,622.94,523.08Z" transform="translate(-565.97 -500.16)"/><path class="cls-1" d="M587.58,541.25h1.25a3,3,0,0,1,3,3h0a.29.29,0,0,1-.29.3h-6.77a.3.3,0,0,1-.3-.3h0A3.05,3.05,0,0,1,587.58,541.25Z" transform="translate(-565.97 -500.16)"/><path class="cls-1" d="M615.17,541.25h1.25a3.05,3.05,0,0,1,3.06,3h0a.3.3,0,0,1-.3.3h-6.77a.29.29,0,0,1-.29-.3h0A3,3,0,0,1,615.17,541.25Z" transform="translate(-565.97 -500.16)"/><path class="cls-1" d="M702.8,556.21c-20.74,0-29.63-7.88-29.63-24.31V508.4H685.3v23.5c0,6.6,1.81,14.14,17.5,14.14s17.51-7.61,17.51-14.14V508.4h12.12v23.5C732.43,548.26,723.48,556.21,702.8,556.21Z" transform="translate(-565.97 -500.16)"/><path class="cls-1" d="M791.35,533.58l-.14,22H779.63V538c0-8.42-2.83-12.79-12.32-12.79-7.74,0-16.1,4-19.66,8.14v22.23H736.13V515.87h11.52v6.94a36.91,36.91,0,0,1,23.09-7.61C781.32,515.2,791.21,519,791.35,533.58Z" transform="translate(-565.97 -500.16)"/><path class="cls-1" d="M806.5,501.67v10H795v-10Zm0,14.2v39.67H795V515.87Z" transform="translate(-565.97 -500.16)"/><path class="cls-1" d="M855.45,541.53l8.69,14H849.86l-7.61-12.6H822.72v12.6H810.6V508.4h37c10.7,0,18,6.8,18,17.31C865.68,533.38,861.78,539,855.45,541.53Zm-32.73-8.75h21.55c3.64,0,9.29,0,9.29-7.07s-5.65-7.14-9.29-7.14H822.72Z" transform="translate(-565.97 -500.16)"/><path class="cls-1" d="M880.63,501.67v10H869.12v-10Zm0,14.2v39.67H869.12V515.87Z" transform="translate(-565.97 -500.16)"/><path class="cls-1" d="M938.27,501.67v53.87H926.76v-6.2c-4.31,4.51-11.25,6.87-19.8,6.87-12.73,0-23.64-5.32-23.64-20.47S894.23,515.2,907,515.2c8.55,0,15.49,2.36,19.8,6.87v-20.4Zm-11.51,34.07c0-7.88-5.66-10.91-16-10.91s-15.89,3-15.89,10.91,5.58,10.84,15.89,10.84S926.76,543.55,926.76,535.74Z" transform="translate(-565.97 -500.16)"/><path class="cls-1" d="M983.45,541.33H994.9c-2.63,10.1-12.46,14.88-27.14,14.88-15.08,0-26.8-5.93-26.8-20.47s11.38-20.54,27.48-20.54c15.08,0,27.13,5.19,27.13,23.23H952.75c1.28,6.33,7.34,8.42,15,8.42C975.71,546.85,980.56,545.37,983.45,541.33Zm-30.3-10.24h30.1c-2-5.59-7.61-7.14-14.88-7.14C960.49,524,955,525.5,953.15,531.09Z" transform="translate(-565.97 -500.16)"/></svg>